<svg xmlns="http://www.w3.org/2000/svg" width="111.366" height="119.258" viewBox="0 0 111.366 119.258">
  <path id="amazon" d="M71.232,66.792c-12.5.479-43.5,4.126-43.5,31.279,0,29.149,35.493,30.347,47.093,11.5,1.668,2.715,9.085,9.983,11.626,12.458l14.577-14.907s-8.289-6.735-8.289-14.055V53.908C92.739,47.173,86.451,32,63.918,32,41.334,32,29.349,46.641,29.349,59.765l18.863,1.81C52.4,48.4,62.122,48.4,62.122,48.4c10.445-.027,9.111,7.933,9.111,18.394Zm0,23.106c0,21.3-21.609,18.1-21.609,4.579,0-12.565,12.96-15.094,21.609-15.386Zm34.9,43.524c-1.976,2.662-17.965,17.835-44.783,17.835S14,132.225,7.714,124.372c-1.745-2.05.257-3.008,1.412-2.209,18.812,11.846,48.2,31.358,95.6,8.066C106.648,129.243,108.137,130.76,106.135,133.422Zm10.214.586a22.2,22.2,0,0,1-5.441,8.252c-1.412,1.2-2.438.719-1.668-1.012s4.953-12.378,3.259-14.641c-1.668-2.209-9.5-1.145-12.319-.852-2.772.266-3.336.532-3.593-.08-.59-1.517,5.569-4.126,9.624-4.659,4.029-.479,10.522-.213,11.805,1.517C118.967,123.892,118.017,129.749,116.349,134.008Z" transform="translate(-7.029 -32)" fill="#fff"/>
</svg>
